<svg xmlns="http://www.w3.org/2000/svg" xmlns:xlink="http://www.w3.org/1999/xlink" width="140" height="140" viewBox="0 0 140 140"><defs><style>.a{fill:rgba(255,255,255,0);}.b{fill:url(#a);}.c,.d,.e,.f,.g{fill:none;}.c,.d,.e{stroke:#443b49;}.c,.d,.f,.g{stroke-width:5px;}.d,.e,.g{stroke-miterlimit:10;}.e{stroke-width:3px;}.f,.g{stroke:#c9cedb;}</style><linearGradient id="a" x1="0.102" y1="0.5" x2="0.845" y2="0.5" gradientUnits="objectBoundingBox"><stop offset="0" stop-color="#e1544f"/><stop offset="1" stop-color="#f08155"/></linearGradient></defs><g transform="translate(-124 -266)"><rect class="a" width="140" height="140" transform="translate(124 266)"/><g transform="translate(-1892.947 162.503)"><rect class="b" width="59.878" height="15" transform="translate(2047.947 150.497)"/><path class="c" d="M-347.175,5331.633h-70.879V5270.48h60v25.153h10.878v36Z" transform="translate(2466 -5119.982)"/><line class="d" x2="36.238" transform="translate(2064.835 181.326)"/><line class="d" x2="36.238" transform="translate(2064.835 194.05)"/><g transform="translate(2055.395 175.093)"><path class="e" d="M2070.7,235.786h-1.423a1.489,1.489,0,0,1-1.489-1.488v-8.223a1.489,1.489,0,0,1,1.489-1.488h1.423" transform="translate(-2064.838 -224.586)"/><line class="e" x1="2.758" transform="translate(0 5.6)"/></g><g transform="translate(2104.645 188.45)"><path class="e" d="M2187.7,288.514h1.423a1.488,1.488,0,0,0,1.489-1.488V278.8a1.488,1.488,0,0,0-1.489-1.488H2187.7" transform="translate(-2187.704 -277.314)"/><line class="e" x2="2.758" transform="translate(3.126 5.6)"/></g><path class="f" d="M0,0H28.318V45.136H0Z" transform="translate(2107.947 130.515)"/><rect class="f" width="28.318" height="14" transform="translate(2107.947 130.515)"/><line class="g" x2="13.628" transform="translate(2115.633 154.35)"/><line class="g" x2="13.628" transform="translate(2115.633 163.81)"/></g></g></svg>