<svg xmlns="http://www.w3.org/2000/svg" xmlns:xlink="http://www.w3.org/1999/xlink" width="140" height="140" viewBox="0 0 140 140"><defs><style>.a{fill:rgba(255,255,255,0);}.b,.c,.e,.f,.g{fill:none;stroke-width:5px;}.b,.c{stroke:#c9cedb;}.b,.e{stroke-miterlimit:10;}.d{fill:url(#a);}.e,.f,.g{stroke:#443b49;}.f{stroke-linejoin:bevel;}</style><linearGradient id="a" x1="0.5" x2="0.5" y2="1" gradientUnits="objectBoundingBox"><stop offset="0" stop-color="#e1544f"/><stop offset="1" stop-color="#f08155"/></linearGradient></defs><g transform="translate(-348.987 -109.545)"><rect class="a" width="140" height="140" transform="translate(348.987 109.545)"/><g transform="translate(-1 -9)"><path class="b" d="M-2515.013,5312.4v-11.339h11.339V5312.4Zm-54,0v-11.339h11.339V5312.4Zm54-46V5255.06h11.339V5266.4Zm-54,0V5255.06h11.339V5266.4Z" transform="translate(2945.801 -5113.855)"/><line class="b" x2="29.441" transform="translate(395.875 161.374)"/><line class="b" x2="18.612" transform="translate(395.875 173.374)"/><line class="c" x2="44.559" transform="translate(386.597 146.045)"/><line class="c" x2="33.5" transform="translate(436.411 152.301) rotate(90)"/><line class="c" x2="44.559" transform="translate(386.597 193.045)"/><line class="c" x2="33.5" transform="translate(382.377 152.301) rotate(90)"/></g><g transform="translate(60.873 -98.685) rotate(13)"><rect class="d" width="17.496" height="14.961" transform="translate(444.537 225.85) rotate(-34.935)"/><rect class="e" width="17.496" height="24.961" transform="translate(438.811 217.652) rotate(-34.935)"/><path class="f" d="M451.266,208.951,440.7,216.333l-9.317-8.91-1.636-17.8,16.177,8.062Z" transform="translate(0 0)"/><path class="g" d="M8.3,12.57,0,0" transform="translate(429.849 189.545)"/></g></g></svg>