<svg xmlns="http://www.w3.org/2000/svg" xmlns:xlink="http://www.w3.org/1999/xlink" width="140" height="140" viewBox="0 0 140 140"><defs><style>.a{fill:rgba(255,255,255,0);}.b{fill:url(#a);}.c,.e{fill:none;stroke-miterlimit:10;stroke-width:5px;}.c{stroke:#443b49;}.d{fill:url(#b);}.e{stroke:#c9cedb;}</style><linearGradient id="a" x1="1" y1="1.026" x2="0.116" y2="0.106" gradientUnits="objectBoundingBox"><stop offset="0" stop-color="#e1544f"/><stop offset="1" stop-color="#f08155"/></linearGradient><linearGradient id="b" x1="-0.171" y1="1" x2="1.121" y2="0" xlink:href="#a"/></defs><g transform="translate(-188.642 -309.878)"><rect class="a" width="140" height="140" transform="translate(188.642 309.878)"/><path class="b" d="M8.924,0H15.4a8.924,8.924,0,0,1,8.924,8.924v8.924a0,0,0,0,1,0,0H8.924A8.924,8.924,0,0,1,0,8.924v0A8.924,8.924,0,0,1,8.924,0Z" transform="translate(222.005 333.631)"/><g transform="translate(224.566 353.468)"><path class="c" d="M280.354,366.948a21.853,21.853,0,0,1,1.144,4.22,22.144,22.144,0,0,1,.3,3.642V382.4" transform="translate(-225.862 -352.768)"/><path class="c" d="M233.712,382.473v-8.994a22.042,22.042,0,0,1,22.042-22.042h0a21.941,21.941,0,0,1,11.563,3.274" transform="translate(-221.86 -351.437)"/><path class="c" d="M275.048,384.385h8.878a8.771,8.771,0,0,1,8.771,8.771h0a8.771,8.771,0,0,1-8.771,8.77h-8.878Z" transform="translate(-225.407 -354.264)"/><path class="c" d="M238.4,384.385h-8.879a8.771,8.771,0,0,0-8.77,8.771h0a8.77,8.77,0,0,0,8.77,8.77H238.4Z" transform="translate(-220.747 -354.264)"/><path class="c" d="M280.149,403.572l-.037,5.127a5.758,5.758,0,0,1-5.758,5.715H261.149" transform="translate(-224.214 -355.911)"/></g><rect class="d" width="11.059" height="9.231" rx="2" transform="translate(253.638 407.355)"/><path class="e" d="M13.5,0H25.459a13.5,13.5,0,0,1,13.5,13.5v0a13.5,13.5,0,0,1-13.5,13.5H0a0,0,0,0,1,0,0V13.5A13.5,13.5,0,0,1,13.5,0Z" transform="translate(269.543 341.859)"/></g></svg>