<svg xmlns="http://www.w3.org/2000/svg" xmlns:xlink="http://www.w3.org/1999/xlink" width="140" height="140" viewBox="0 0 140 140"><defs><style>.a{fill:rgba(255,255,255,0);}.b,.c{fill:none;stroke-miterlimit:10;stroke-width:5px;}.b{stroke:#443b49;}.c{stroke:#c9cedb;}.d{fill:url(#a);}</style><linearGradient id="a" x1="0.03" x2="0.842" gradientUnits="objectBoundingBox"><stop offset="0" stop-color="#e1544f"/><stop offset="1" stop-color="#f08155"/></linearGradient></defs><g transform="translate(-187.744 -309.531)"><rect class="a" width="140" height="140" transform="translate(187.744 309.531)"/><path class="b" d="M226.375,362.368H215.582l2.139,49.657" transform="translate(2.977 1.129)"/><path class="b" d="M290.873,371.59l-.4-9.222h-8" transform="translate(-1.737 1.129)"/><path class="c" d="M229.929,372.282V340.988h38.236V350.1" transform="translate(-1.034 2.635)"/><rect class="c" width="38.236" height="21.754" transform="translate(242.504 353.163)"/><path class="c" d="M255.652,372.47a7.025,7.025,0,1,1,10.6.207" transform="translate(0.58 1.49)"/><path class="d" d="M-10283.257,5601.942l.782-4.169h27.451l-.782,4.169Zm-34-10.321,1.022-7.089,67.456.241-1.9,6.849Z" transform="translate(10544.992 -5208.087)"/><path class="b" d="M287.888,412.891h-70.18l6.4-38.237h70.18Z" transform="translate(2.827 0.263)"/><line class="c" x2="5.368" transform="translate(236.876 361.94)"/></g></svg>