<svg xmlns="http://www.w3.org/2000/svg" xmlns:xlink="http://www.w3.org/1999/xlink" width="140" height="140" viewBox="0 0 140 140"><defs><style>.a{fill:rgba(255,255,255,0);}.b,.c{fill:none;stroke-miterlimit:10;stroke-width:5px;}.b{stroke:#c9cedb;}.c{stroke:#443b49;}.d{fill:url(#a);}.e{fill:url(#b);}</style><linearGradient id="a" y1="1.039" x2="0.831" gradientUnits="objectBoundingBox"><stop offset="0" stop-color="#e1544f"/><stop offset="1" stop-color="#f08155"/></linearGradient><linearGradient id="b" x1="0.119" y1="0.882" x2="0.879" y2="0.194" xlink:href="#a"/></defs><g transform="translate(-349.26 -309.531)"><rect class="a" width="140" height="140" transform="translate(349.26 309.531)"/><g transform="translate(-7.983 6.274)"><path class="b" d="M-6.045,33.909h0ZM16.137,21.722H3.53C1.58,21.722,0,21.836,0,19.277V16.661C0,14.1,1.58,12.028,3.53,12.028H16.137c1.949,0,3.531,2.075,3.531,4.633v2.616c0,2.349-1.333,2.445-3.059,2.445ZM5.258,1.25V-1.521A4.055,4.055,0,0,1,9.31-5.579a4.054,4.054,0,0,1,4.049,4.058V1.25a4.05,4.05,0,1,1-8.1,0Z" transform="translate(398.973 354.212)"/><path class="b" d="M404.284,402.171h-20.1V333.384h39.528l10.71,9.992,0,31.609v5.275" transform="translate(0 -2.212)"/><path class="b" d="M420.721,333.384v11.8h12.043" transform="translate(1.653 -1.792)"/><rect class="c" width="70.417" height="37.196" rx="5" transform="translate(405.427 375.942)"/><path class="d" d="M13.764,20.636H3.011c-1.663,0-3.011.1-3.011-2.085V16.32c0-2.183,1.347-3.952,3.011-3.952H13.764c1.662,0,3.011,1.768,3.011,3.952v2.231c0,2-1.138,2.086-2.61,2.086ZM4.485,6.826V4.462a3.455,3.455,0,1,1,6.909,0V6.826a3.455,3.455,0,1,1-6.909,0Z" transform="translate(417.143 384.112)"/><line class="c" x1="13.772" transform="translate(439.928 389.121)"/><line class="c" x1="25.895" transform="translate(439.928 399.958)"/></g><path class="e" d="M-9175.741,5426.53a12.913,12.913,0,0,1-9.191-3.808,12.915,12.915,0,0,1-3.808-9.191,12.915,12.915,0,0,1,3.808-9.191,12.913,12.913,0,0,1,9.191-3.808,12.916,12.916,0,0,1,9.194,3.808,12.915,12.915,0,0,1,3.808,9.191,12.915,12.915,0,0,1-3.808,9.191A12.916,12.916,0,0,1-9175.741,5426.53Zm-3.333-14.727a.993.993,0,0,0-.8.4l-1.01,1.34a1,1,0,0,0,.2,1.4l3.625,2.73a1,1,0,0,0,.6.2.992.992,0,0,0,.8-.4l.012-.016a1.033,1.033,0,0,0,.17-.185l4.35-5.984a1,1,0,0,0-.222-1.4l-1.355-.987a.994.994,0,0,0-.587-.19,1.008,1.008,0,0,0-.811.411l-2.895,3.985-1.474-1.109A1,1,0,0,0-9179.074,5411.8Z" transform="translate(9624 -5053)"/></g></svg>