<svg xmlns="http://www.w3.org/2000/svg" xmlns:xlink="http://www.w3.org/1999/xlink" width="140" height="139.997" viewBox="0 0 140 139.997"><defs><style>.a{fill:#fff;opacity:0;}.b{fill:url(#a);}.c,.d{fill:none;stroke-miterlimit:10;}.c{stroke:#c9cedb;}.c,.d,.e{stroke-width:5px;}.d{stroke:#443b49;}.e{stroke:rgba(0,0,0,0);fill:url(#b);}</style><linearGradient id="a" y1="0.5" x2="1" y2="0.5" gradientUnits="objectBoundingBox"><stop offset="0" stop-color="#e1544f"/><stop offset="1" stop-color="#f08155"/></linearGradient><linearGradient id="b" x1="-0.153" y1="1.042" x2="1.092" y2="0.061" xlink:href="#a"/></defs><rect class="a" width="140" height="139.997" transform="translate(0 0)"/><g transform="translate(24.25 25.284)"><path class="b" d="M1.537,0H39.511c1.845,0,11.462,12.044,10.613,12.044H1.537A1.537,1.537,0,0,1,0,10.507V1.537A1.537,1.537,0,0,1,1.537,0Z" transform="translate(40.221 1.455)"/><g transform="translate(0 21.846)"><line class="c" x2="29.939" transform="translate(12.24 23.578)"/><line class="c" x2="29.939" transform="translate(12.24 35.888)"/><line class="c" x2="30.998" transform="translate(12.24 48.196)"/><path class="c" d="M388.07,349.09V370.84H337.064V304.049l40.283-.074" transform="translate(-337.064 -303.975)"/><rect class="c" width="40.283" height="11.718" transform="translate(0 0.694)"/></g><g transform="translate(40.283 0)"><path class="d" d="M395.27,350.072H375.522V283.279h39.612l10.732,9.7-.007,57.09H395.27" transform="translate(-375.522 -282.071)"/><line class="d" x2="30.998" transform="translate(9.614 32.178)"/><line class="d" x2="30.998" transform="translate(9.614 21.647)"/><path class="d" d="M412.063,282.126v13.033h13.165" transform="translate(-373.788 -282.126)"/></g><path class="e" d="M4.363,37.158V21.488l4-2.1a2.288,2.288,0,0,1,2.135,0l4,2.1V37.13a1.723,1.723,0,0,1-2.507,1.534l-1.723-.879a1.721,1.721,0,0,0-1.555-.007l-1.85.924a1.721,1.721,0,0,1-2.494-1.543ZM3.113,16.5l.719-4.191a1.332,1.332,0,0,0-.382-1.178L.4,8.166a1.332,1.332,0,0,1,.738-2.271l4.208-.61a1.337,1.337,0,0,0,1-.729L8.233.742a1.332,1.332,0,0,1,2.388,0L12.5,4.554a1.334,1.334,0,0,0,1,.729l4.209.611a1.331,1.331,0,0,1,.737,2.27l-3.045,2.967a1.334,1.334,0,0,0-.383,1.179l.719,4.191a1.33,1.33,0,0,1-1.931,1.4l-3.765-1.977a1.327,1.327,0,0,0-1.238,0L5.044,17.906a1.328,1.328,0,0,1-1.932-1.4Z" transform="translate(55.969 38.345)"/></g></svg>