<svg xmlns="http://www.w3.org/2000/svg" xmlns:xlink="http://www.w3.org/1999/xlink" width="140" height="139.997" viewBox="0 0 140 139.997"><defs><style>.a{fill:rgba(255,255,255,0);}.b{fill:url(#a);}.c,.d{fill:none;stroke-miterlimit:10;stroke-width:5px;}.c{stroke:#c9cedb;}.d{stroke:#4b2f24;}</style><linearGradient id="a" x1="0.5" x2="0.5" y2="1" gradientUnits="objectBoundingBox"><stop offset="0" stop-color="#e1544f"/><stop offset="1" stop-color="#f08155"/></linearGradient></defs><rect class="a" width="140" height="139.997"/><g transform="translate(-537.517 -410.376)"><path class="b" d="M-9306.2,5997.027h-5.149a1.5,1.5,0,0,1-1.5-1.5v-1.273a11.656,11.656,0,0,1-3.46-1.989l-1.095.632a1.5,1.5,0,0,1-.75.2,1.512,1.512,0,0,1-1.3-.752l-2.573-4.459a1.493,1.493,0,0,1-.151-1.141,1.5,1.5,0,0,1,.7-.914l1.1-.636a11.868,11.868,0,0,1-.18-1.994,11.848,11.848,0,0,1,.18-1.991l-1.1-.636a1.508,1.508,0,0,1-.55-2.057l2.573-4.457a1.512,1.512,0,0,1,1.3-.752,1.5,1.5,0,0,1,.75.2l1.095.629a11.684,11.684,0,0,1,3.46-1.986v-1.273a1.5,1.5,0,0,1,1.5-1.5h5.149a1.506,1.506,0,0,1,1.5,1.5v1.273a11.766,11.766,0,0,1,3.46,1.986l1.093-.629a1.5,1.5,0,0,1,.75-.2,1.51,1.51,0,0,1,1.3.752l2.573,4.457a1.509,1.509,0,0,1-.55,2.057l-1.1.636a11.784,11.784,0,0,1,.181,1.991,11.8,11.8,0,0,1-.181,1.994l1.1.636a1.5,1.5,0,0,1,.7.915,1.485,1.485,0,0,1-.149,1.14l-2.573,4.459a1.51,1.51,0,0,1-1.3.752,1.5,1.5,0,0,1-.75-.2l-1.093-.632a11.738,11.738,0,0,1-3.46,1.989v1.273A1.506,1.506,0,0,1-9306.2,5997.027Zm-2.573-18.8a4.979,4.979,0,0,0-4.972,4.974,4.978,4.978,0,0,0,4.972,4.972,4.978,4.978,0,0,0,4.972-4.972A4.979,4.979,0,0,0-9308.773,5978.228Z" transform="translate(9937.187 -5534.565)"/></g><g transform="translate(-518.517 -385.376)"><path class="b" d="M-9333.965,5956.914h-2.335a.684.684,0,0,1-.683-.682v-.577a5.324,5.324,0,0,1-1.568-.9l-.494.286a.676.676,0,0,1-.341.092.69.69,0,0,1-.593-.341l-1.165-2.021a.686.686,0,0,1,.248-.933l.5-.288a5.259,5.259,0,0,1-.082-.9,5.316,5.316,0,0,1,.082-.9l-.5-.289a.677.677,0,0,1-.317-.414.674.674,0,0,1,.069-.517l1.165-2.021a.692.692,0,0,1,.595-.342.675.675,0,0,1,.339.091l.494.286a5.366,5.366,0,0,1,1.568-.9v-.577a.684.684,0,0,1,.683-.682h2.335a.683.683,0,0,1,.682.682v.577a5.408,5.408,0,0,1,1.568.9l.5-.286a.684.684,0,0,1,.34-.091.683.683,0,0,1,.591.342l1.17,2.021a.679.679,0,0,1,.067.518.677.677,0,0,1-.318.413l-.5.289a5.536,5.536,0,0,1,.082.9,5.477,5.477,0,0,1-.082.9l.5.288a.689.689,0,0,1,.251.933l-1.17,2.021a.681.681,0,0,1-.589.341.677.677,0,0,1-.342-.092l-.5-.286a5.35,5.35,0,0,1-1.568.9v.577A.683.683,0,0,1-9333.965,5956.914Zm-1.168-8.524a2.258,2.258,0,0,0-2.255,2.255,2.257,2.257,0,0,0,2.255,2.253,2.257,2.257,0,0,0,2.256-2.253A2.258,2.258,0,0,0-9335.133,5948.389Z" transform="translate(9956.187 -5509.565)"/></g><path class="c" d="M528.575,348.981v-7.21h53.292v7.21" transform="translate(-485.176 -249.726)"/><line class="c" y1="22" transform="translate(70.144 79.5)"/><rect class="c" width="14.783" height="12.751" transform="translate(36.001 101.234)"/><rect class="c" width="14.783" height="12.751" transform="translate(63.001 101.234)"/><rect class="c" width="14.783" height="12.751" transform="translate(89.001 101.234)"/><g transform="translate(49.941 26.561)"><path class="b" d="M3.607-.458l3.8,3.9L5.143,16.463H2.564L0,3.438Z" transform="translate(24.509 46.439) rotate(180)"/><rect class="d" width="16.831" height="22.573" rx="8.415" transform="translate(12.014)"/><path class="d" d="M543.441,315.8h26.193c4.049,0,7.333,4.852,7.333,10.836v6.116c0,5.984-3.283,5.716-7.333,5.716H543.441c-4.049,0-7.333.268-7.333-5.716V326.64C536.108,320.656,539.391,315.8,543.441,315.8Z" transform="translate(-536.108 -285.407)"/></g></svg>