<svg xmlns="http://www.w3.org/2000/svg" xmlns:xlink="http://www.w3.org/1999/xlink" width="140" height="139.997" viewBox="0 0 140 139.997"><defs><style>.a{fill:rgba(255,255,255,0);}.b{fill:url(#a);}.c,.d{fill:none;stroke-miterlimit:10;stroke-width:5px;}.c{stroke:#c9cedb;}.d{stroke:#4b2f24;}</style><linearGradient id="a" x1="0.5" x2="0.5" y2="1" gradientUnits="objectBoundingBox"><stop offset="0" stop-color="#e1544f"/><stop offset="1" stop-color="#f08155"/></linearGradient></defs><rect class="a" width="140" height="139.997"/><path class="b" d="M0,0H41a0,0,0,0,1,0,0V6a4,4,0,0,1-4,4H4A4,4,0,0,1,0,6V0A0,0,0,0,1,0,0Z" transform="translate(50.246 90)"/><g transform="translate(87.18 47.562)"><rect class="c" width="9.219" height="12.364" rx="4.609" transform="translate(6.58 -3)"/><path class="c" d="M540.124,315.8h14.347c2.218,0,4.016,2.657,4.016,5.935v3.35c0,3.278-1.8,3.131-4.016,3.131H540.124c-2.218,0-4.016.147-4.016-3.131v-3.35C536.108,318.461,537.906,315.8,540.124,315.8Z" transform="translate(-536.108 -299.155)"/></g><g transform="translate(31.18 47.562)"><rect class="c" width="9.219" height="12.364" rx="4.609" transform="translate(6.58 -3)"/><path class="c" d="M540.124,315.8h14.347c2.218,0,4.016,2.657,4.016,5.935v3.35c0,3.278-1.8,3.131-4.016,3.131H540.124c-2.218,0-4.016.147-4.016-3.131v-3.35C536.108,318.461,537.906,315.8,540.124,315.8Z" transform="translate(-536.108 -299.155)"/></g><g transform="translate(49.941 43.561)"><rect class="d" width="16.831" height="22.573" rx="8.415" transform="translate(12.014)"/><path class="d" d="M543.441,315.8h26.193c4.049,0,7.333,4.852,7.333,10.836v10.112c0,5.984-3.283,5.716-7.333,5.716H543.441c-4.049,0-7.333.268-7.333-5.716V326.64C536.108,320.656,539.391,315.8,543.441,315.8Z" transform="translate(-536.108 -285.407)"/></g></svg>