<svg xmlns="http://www.w3.org/2000/svg" xmlns:xlink="http://www.w3.org/1999/xlink" width="140" height="140" viewBox="0 0 140 140"><defs><style>.a{fill:rgba(255,255,255,0);}.b{fill:url(#a);}.c,.d{fill:none;stroke-miterlimit:10;stroke-width:5px;}.c{stroke:#c9cedb;}.d{stroke:#4b2f24;}</style><linearGradient id="a" x1="-0.319" y1="0.737" x2="0.915" y2="0.253" gradientUnits="objectBoundingBox"><stop offset="0" stop-color="#e1544f"/><stop offset="1" stop-color="#f08155"/></linearGradient></defs><g transform="translate(0)"><rect class="a" width="140" height="140"/><g transform="translate(30.297 22.372)"><path class="b" d="M-3097.185,5358.609l-4.712-3.552a1,1,0,0,1-.2-1.4l1.47-1.953a1,1,0,0,1,1.4-.2l1.946,1.466,3.622-4.983a1,1,0,0,1,1.4-.222l1.978,1.438a1,1,0,0,1,.221,1.4l-4.22,5.809-.032.046-.024.031-1.222,1.685a1.041,1.041,0,0,1-.2.207l-.023.03a1,1,0,0,1-.8.4A.994.994,0,0,1-3097.185,5358.609Zm0-17.285-4.712-3.55a1,1,0,0,1-.2-1.4l1.47-1.952a1,1,0,0,1,1.4-.2l1.946,1.469,3.622-4.984a1,1,0,0,1,1.4-.222l1.978,1.438a1,1,0,0,1,.221,1.4l-4.22,5.809-.032.046-.024.031-1.222,1.684a1.036,1.036,0,0,1-.2.208l-.023.029a1,1,0,0,1-.8.4A1,1,0,0,1-3097.185,5341.325Zm-10.163-19.177a1.551,1.551,0,0,1-1.5-1.6v-9.324a1.551,1.551,0,0,1,1.5-1.6h37.108c1.8,0,11.2,12.52,10.37,12.52Z" transform="translate(3142.961 -5275.519)"/><line class="c" x2="32.988" transform="translate(9.282 26.037)"/><line class="c" x2="23.55" transform="translate(9.282 37.685)"/><line class="c" x2="23.55" transform="translate(9.282 49.332)"/><line class="d" x1="18.884" transform="translate(55.709 59.107)"/><path class="d" d="M116.953,358.869v11.487h15.434" transform="translate(-48.801 -324.63)"/><path class="c" d="M105.179,338.385h13.284v27.3" transform="translate(-68.228 -331.809)"/><path class="c" d="M96.163,400.251H63.938V338.385h14.09" transform="translate(-63.938 -331.809)"/><rect class="c" width="21.845" height="12.213" transform="translate(14.682 0)"/><line class="d" x1="18.884" transform="translate(55.709 76.99)"/><path class="d" d="M80.412,419.5V358.869h39.68l10.751,8.807-.007,51.825Z" transform="translate(-47.58 -324.63)"/></g></g></svg>