<svg xmlns="http://www.w3.org/2000/svg" xmlns:xlink="http://www.w3.org/1999/xlink" width="140" height="140" viewBox="0 0 140 140"><defs><style>.a{fill:rgba(255,255,255,0);}.b,.c,.e,.g{fill:none;}.b,.c{stroke:#c9cedb;}.b,.c,.e{stroke-width:5px;}.c,.e{stroke-miterlimit:10;}.d{fill:url(#a);}.e{stroke:#443b49;}.f{stroke:none;}</style><linearGradient id="a" x1="0.102" y1="0.5" x2="0.845" y2="0.5" gradientUnits="objectBoundingBox"><stop offset="0" stop-color="#e1544f"/><stop offset="1" stop-color="#f08155"/></linearGradient></defs><g transform="translate(-27.841 -488.874)"><rect class="a" width="140" height="140" transform="translate(27.841 488.874)"/><g transform="translate(-2 4)"><g class="b" transform="translate(121.841 503.875)"><rect class="f" width="19" height="71"/><rect class="g" x="2.5" y="2.5" width="14" height="66"/></g><g transform="translate(84.567 505.741)"><line class="b" x2="8" transform="translate(47.774 14.633)"/><line class="b" x2="10" transform="translate(45.774 27.27)"/><line class="b" x2="8" transform="translate(47.774 39.906)"/><line class="b" x2="10" transform="translate(45.774 52.543)"/></g></g><path class="c" d="M50.934,527.055v42.426h32.6Z" transform="translate(-0.115 6.572)"/><g transform="translate(79.567 522.741)"><rect class="d" width="32.878" height="15" transform="translate(1.274 47.133)"/><path class="e" d="M85.252,542.743V517.22h7.914v25.523Z" transform="translate(-81.091 -506.247)"/><path class="e" d="M107.712,536.8l10-17.465,6.424,3.817-14.858,25.957" transform="translate(-80.405 -512.569)"/><path class="e" d="M104.179,504.266l3.967,5.089v31.734h-7.935V509.216Z" transform="translate(-80.744 -504.266)"/><path class="e" d="M107.985,547.735H80.547a2.135,2.135,0,0,0-2.133,2.24l1.5,30.658a2.136,2.136,0,0,0,2.133,2.031H109.6a2.136,2.136,0,0,0,2.133-2.031l1.5-30.658a2.135,2.135,0,0,0-2.133-2.24Z" transform="translate(-78.411 -510.912)"/></g></g></svg>