<svg xmlns="http://www.w3.org/2000/svg" xmlns:xlink="http://www.w3.org/1999/xlink" width="140" height="140" viewBox="0 0 140 140"><defs><style>.a{fill:rgba(255,255,255,0);}.b,.c{fill:none;stroke-miterlimit:10;stroke-width:5px;}.b{stroke:#c9cedb;}.c{stroke:#443b49;}.d{fill:url(#a);}</style><linearGradient id="a" x1="0.029" y1="0.817" x2="0.964" y2="0.628" gradientUnits="objectBoundingBox"><stop offset="0" stop-color="#e1544f"/><stop offset="1" stop-color="#f08155"/></linearGradient></defs><g transform="translate(-346.153 -251.324)"><rect class="a" width="140" height="140" transform="translate(346.153 251.324)"/><g transform="translate(441.32 316.365)"><path class="b" d="M456.33,320.208h-4.142a4.142,4.142,0,1,0,0,8.285" transform="translate(-448.045 -314.257)"/><path class="b" d="M448.045,338.755l4.143.079a4.142,4.142,0,0,0,0-8.285" transform="translate(-448.045 -316.313)"/><line class="b" y1="5.951" transform="translate(4.143 0)"/><line class="b" y1="5.951" transform="translate(4.143 22.521)"/></g><path class="b" d="M432.557,334.892a18.6,18.6,0,1,0,.445-18.2" transform="translate(-3.646 4.622)"/><g transform="translate(3.379 3.724)"><path class="c" d="M365.733,355.94a6.236,6.236,0,0,0,6.236,6.236h47.2a6.236,6.236,0,0,1-6.235-6.236v-8.152h-47.2Z" transform="translate(0 -5.83)"/><line class="c" x2="29.652" transform="translate(386.595 323.618)"/><path class="d" d="M380.4,309.346c-.768-.036-1.373-.947-1.348-2.034V295.456c-.024-1.089,1.143-2.85,1.913-2.885l45.131.212c1.618,0,.484,16.557-.262,16.557Z" transform="translate(-1.347 -0.245)"/><path class="c" d="M419.7,290.147l-6.094,3.519-6.1-3.519-6.094,3.519-6.094-3.519-6.094,3.519-6.094-3.519-6.094,3.519v48.292h-11.31v8.152a6.236,6.236,0,0,0,6.236,6.236h47.2a6.17,6.17,0,0,1-.908-.074h.7a6.84,6.84,0,0,0,6.841-6.84V293.666Z"/></g></g></svg>