<svg xmlns="http://www.w3.org/2000/svg" xmlns:xlink="http://www.w3.org/1999/xlink" width="140" height="140" viewBox="0 0 140 140"><defs><style>.a{fill:rgba(255,255,255,0);}.b{stroke:rgba(0,0,0,0);fill:url(#a);}.c,.d,.e{fill:none;stroke-miterlimit:10;stroke-width:5px;}.c{stroke:#443b49;}.d{stroke:#c9cedb;}.e{stroke:#401f16;}</style><linearGradient id="a" y1="0.5" x2="1.132" y2="0.302" gradientUnits="objectBoundingBox"><stop offset="0" stop-color="#e1544f"/><stop offset="1" stop-color="#f08155"/></linearGradient></defs><g transform="translate(-179.849 -428.312)"><rect class="a" width="140" height="140" transform="translate(179.848 428.312)"/><path class="b" d="M25.178,28.022V0h9.113v5.09h2.844V26.2H34.292v1.824ZM0,28.022V14.313H9.114V28.022Zm13.107,0V11.637h9.113V28.021Z" transform="translate(232.587 496.825)"/><path class="c" d="M261.121,464.441v11.227h15.085" transform="translate(-1.512 9.834)"/><path class="d" d="M255.756,462.625l0-11.346H206.473v59.257h12.589" transform="translate(6.027 11.65)"/><ellipse class="c" cx="11.749" cy="11.749" rx="11.749" ry="11.749" transform="translate(260.792 501.093)"/><line class="e" x1="7.127" y1="7.127" transform="translate(280.689 521.283)"/><path class="c" d="M270.359,514.584V523.7H221.077V464.441h38.781l10.507,8.608,0,17.405" transform="translate(4.013 9.834)"/></g></svg>