<svg xmlns="http://www.w3.org/2000/svg" xmlns:xlink="http://www.w3.org/1999/xlink" width="140" height="140" viewBox="0 0 140 140"><defs><style>.a{fill:rgba(255,255,255,0);}.b{stroke:rgba(0,0,0,0);fill:url(#a);}.c,.d,.e{fill:none;stroke-width:5px;}.c{stroke:#401f16;}.c,.e{stroke-miterlimit:10;}.d,.e{stroke:#c9cedb;}.f{fill:url(#b);}</style><linearGradient id="a" x1="0.223" y1="0.747" x2="0.901" y2="0.569" gradientUnits="objectBoundingBox"><stop offset="0" stop-color="#e1544f"/><stop offset="1" stop-color="#f08155"/></linearGradient><linearGradient id="b" x1="0.5" y1="0" x2="0.5" y2="1" xlink:href="#a"/></defs><g transform="translate(-346.153 -424.822)"><rect class="a" width="140" height="140" transform="translate(346.153 424.822)"/><path class="b" d="M-9960.117,5826.773h-8.129v-13.081a1.871,1.871,0,0,0-1.869-1.869h-16.731v-10.131a1.871,1.871,0,0,1,1.869-1.869h24.86a1.872,1.872,0,0,1,1.871,1.869V5824.9A1.872,1.872,0,0,1-9960.117,5826.773Z" transform="translate(10427.445 -5346.834)"/><path class="c" d="M395.934,519.48V454.29H451.49v73.517a7.674,7.674,0,0,1-7.795,7.547H395.934" transform="translate(912.04 71.155) rotate(90)"/><path class="c" d="M383.395,529.523c0,3.22,3.181,5.831,7.105,5.831h53.78c-3.924,0-7.105-2.611-7.105-5.831V521.9h-53.78Z" transform="translate(912.04 71.155) rotate(90)"/><g transform="translate(0 -5)"><line class="d" x2="13" transform="translate(416.653 490.322)"/><line class="d" x2="13" transform="translate(416.653 511.322)"/><line class="d" y2="10" transform="translate(434.653 495.322)"/><rect class="e" width="9.385" height="9.385" transform="translate(417.082 506.907) rotate(90)"/><rect class="e" width="9.385" height="9.385" transform="translate(439.038 485.136) rotate(90)"/><rect class="e" width="9.385" height="9.385" transform="translate(439.038 506.907) rotate(90)"/><rect class="f" width="15.385" height="15.385" rx="7.693" transform="translate(420.563 482.465) rotate(90)"/></g></g></svg>