<svg xmlns="http://www.w3.org/2000/svg" xmlns:xlink="http://www.w3.org/1999/xlink" width="140" height="140" viewBox="0 0 140 140"><defs><style>.a{fill:rgba(255,255,255,0);}.b,.d{fill:none;stroke-miterlimit:10;stroke-width:5px;}.b{stroke:#c9cedb;}.c{fill:url(#a);}.d{stroke:#401f16;}</style><linearGradient id="a" x1="0.5" x2="0.5" y2="1" gradientUnits="objectBoundingBox"><stop offset="0" stop-color="#e1544f"/><stop offset="1" stop-color="#f08155"/></linearGradient></defs><g transform="translate(-346.153 -424.822)"><rect class="a" width="140" height="140" transform="translate(346.153 424.822)"/><g transform="translate(-2.702 6)"><line class="b" x1="22.985" transform="translate(391.03 474.301)"/><line class="b" x1="22.985" transform="translate(391.03 487.301)"/><path class="b" d="M116.953,358.869v11.487h15.434" transform="translate(291.606 90.563)"/><path class="b" d="M80.412,414.595V358.869H114.9l9.344,8.095-.006,47.631Z" transform="translate(299.423 90.563)"/></g><g transform="translate(16.334 8.527)"><g transform="matrix(0.978, 0.208, -0.208, 0.978, 408.955, 456.613)"><rect class="c" width="16.806" height="17.6" transform="translate(20.725 8.28) rotate(45)"/><rect class="d" width="23.788" height="8.219" rx="1.87" transform="translate(5.812 18.257) rotate(45)"/><rect class="d" width="23.788" height="8.219" rx="1.87" transform="translate(24.069 0) rotate(45)"/><line class="d" x2="17.748" y2="17.748" transform="translate(26.387 26.387)"/></g><g transform="translate(375.819 516.853)"><rect class="c" width="25.855" height="7.869" transform="translate(10.794 0)"/><line class="d" x2="46.756" transform="translate(0 7.869)"/></g></g></g></svg>