<svg xmlns="http://www.w3.org/2000/svg" xmlns:xlink="http://www.w3.org/1999/xlink" width="140" height="140" viewBox="0 0 140 140"><defs><style>.a{fill:rgba(255,255,255,0);}.b,.c{fill:none;stroke-miterlimit:10;stroke-width:5px;}.b{stroke:#c9cedb;}.c{stroke:#443b49;}.d{fill:url(#a);}</style><linearGradient id="a" x1="0.05" y1="0.731" x2="0.739" y2="0.72" gradientUnits="objectBoundingBox"><stop offset="0" stop-color="#e1544f"/><stop offset="1" stop-color="#f08155"/></linearGradient></defs><g transform="translate(-346.153 -430.166)"><rect class="a" width="140" height="140" transform="translate(346.153 430.166)"/><g transform="translate(-12 -12)"><ellipse class="b" cx="9.67" cy="3.684" rx="9.67" ry="3.684" transform="translate(435.115 496.013)"/><path class="b" d="M454.455,508.874c0,2.035-4.329,3.684-9.67,3.684s-9.67-1.649-9.67-3.684"/><path class="b" d="M454.455,518.052c0,2.034-4.329,3.683-9.67,3.683s-9.67-1.649-9.67-3.683"/><path class="b" d="M454.455,527.229c0,2.034-4.329,3.683-9.67,3.683s-9.67-1.649-9.67-3.683"/><path class="b" d="M454.455,536.406c0,2.035-4.329,3.684-9.67,3.684s-9.67-1.649-9.67-3.684"/><line class="b" y1="37.325" transform="translate(435.115 499.081)"/><line class="b" y2="37.325" transform="translate(454.455 499.081)"/></g><g transform="translate(-12 -9)"><ellipse class="b" cx="9.67" cy="3.684" rx="9.67" ry="3.684" transform="translate(454.455 516.21)"/><path class="b" d="M473.8,529.071c0,2.034-4.329,3.683-9.67,3.683s-9.67-1.649-9.67-3.683"/><path class="b" d="M473.8,538.248c0,2.034-4.329,3.684-9.67,3.684s-9.67-1.65-9.67-3.684"/><line class="b" y1="19.488" transform="translate(454.455 519.278)"/><line class="b" y2="19.488" transform="translate(473.795 519.278)"/></g><g transform="translate(0.33 2.801)"><g transform="translate(402.805 489.08)"><path class="c" d="M413.655,501.856h-3.986a3.986,3.986,0,0,0,0,7.973" transform="translate(-405.682 -496.129)"/><path class="c" d="M405.682,518.433l3.986.075a3.986,3.986,0,1,0,0-7.973" transform="translate(-405.682 -496.836)"/><line class="c" y1="5.727" transform="translate(3.987)"/><line class="c" y1="5.727" transform="translate(3.987 21.673)"/></g><path class="d" d="M370.374,477.058V464.441l43.151.655,9.366,11.962Z" transform="translate(0 0)"/><path class="c" d="M414.146,465.154v11.963h12.312" transform="translate(-3.567 -0.058)"/><path class="c" d="M422.884,517.87v9.712H370.374v-63.14H411.7l11.2,9.172,0,44.712" transform="translate(0)"/><line class="c" x2="11.97" transform="translate(381.235 495.807)"/><line class="c" x2="11.97" transform="translate(381.235 508.97)"/></g></g></svg>