<svg xmlns="http://www.w3.org/2000/svg" xmlns:xlink="http://www.w3.org/1999/xlink" width="140" height="140" viewBox="0 0 140 140"><defs><style>.a{fill:rgba(255,255,255,0);}.b,.d{fill:none;stroke-miterlimit:10;stroke-width:5px;}.b{stroke:#c9cedb;}.c{fill:url(#a);}.d{stroke:#443b49;}</style><linearGradient id="a" y1="0.5" x2="1" y2="0.5" gradientUnits="objectBoundingBox"><stop offset="0" stop-color="#e1544f"/><stop offset="1" stop-color="#f08155"/></linearGradient></defs><g transform="translate(-346.153 -605.3)"><rect class="a" width="140" height="140" transform="translate(346.153 605.3)"/><path class="b" d="M458.114,652.191h12.244v-9.069a6.938,6.938,0,0,0-6.938-6.938H410.913" transform="translate(0 -3)"/><path class="b" d="M403.873,665.746V641.534a5.35,5.35,0,0,1,5.35-5.35h53.44c-4.886,0-4.549,8.254-4.549,8.254v58.374H430.926" transform="translate(0 -3)"/><line class="b" x2="29.652" transform="translate(414.974 653.317)"/><line class="b" x2="13.972" transform="translate(430.653 670.317)"/><rect class="c" width="44.803" height="16.949" transform="translate(378.59 669.188)"/><rect class="d" width="59.118" height="62.053" transform="translate(371.807 662.116)"/><line class="d" y2="9.595" transform="translate(382.971 691.869)"/><line class="d" y2="9.595" transform="translate(394.917 691.869)"/><line class="d" y2="9.595" transform="translate(406.863 691.869)"/><line class="d" y2="24.158" transform="translate(418.809 691.869)"/><line class="d" y2="9.595" transform="translate(382.971 706.432)"/><line class="d" y2="9.595" transform="translate(394.917 706.432)"/><line class="d" y2="9.595" transform="translate(406.863 706.432)"/></g></svg>