<svg xmlns="http://www.w3.org/2000/svg" xmlns:xlink="http://www.w3.org/1999/xlink" width="140" height="140" viewBox="0 0 140 140"><defs><style>.a{fill:rgba(255,255,255,0);}.b,.c{fill:none;stroke-miterlimit:10;stroke-width:5px;}.b{stroke:#c9cedb;}.c{stroke:#443b49;}.d{fill:url(#a);}</style><linearGradient id="a" x1="-0.115" y1="0.903" x2="0.975" y2="0.064" gradientUnits="objectBoundingBox"><stop offset="0" stop-color="#e1544f"/><stop offset="1" stop-color="#f08155"/></linearGradient></defs><g transform="translate(-179.665 -605.3)"><rect class="a" width="140" height="140" transform="translate(179.665 605.3)"/><path class="b" d="M266.654,675.3H290V661.8a13.5,13.5,0,0,0-13.5-13.5H264.541a13.5,13.5,0,0,0-13.5,13.5h0a13.511,13.511,0,0,0,.469,3.54"/><path class="b" d="M234.6,618.432h11.959a13.5,13.5,0,0,1,13.5,13.5h0a13.5,13.5,0,0,1-13.5,13.5H221.1v-13.5A13.5,13.5,0,0,1,234.6,618.432Z" transform="translate(-7 6)"/><line class="b" y2="4.194" transform="translate(224.703 635.647)"/><line class="b" y2="4.194" transform="translate(233.324 635.647)"/><line class="b" y2="4.194" transform="translate(241.946 635.647)"/><line class="b" y2="4.194" transform="translate(270.521 659.703)"/><line class="b" y2="4.194" transform="translate(279.142 659.703)"/><line class="c" x2="4.216" y2="20.958" transform="translate(226.937 694.1)"/><rect class="c" width="6.647" height="13.894" transform="translate(211.202 684.01) rotate(-11.374)"/><rect class="d" width="15.348" height="22.213" transform="translate(216.898 678.621) rotate(-11.374)"/><path class="c" d="M233.069,676.051l4.3,21.373,34.123,4.569-8.776-43.625Z" transform="translate(0 -1)"/></g></svg>