<svg xmlns="http://www.w3.org/2000/svg" xmlns:xlink="http://www.w3.org/1999/xlink" width="140" height="140" viewBox="0 0 140 140"><defs><style>.a{fill:rgba(255,255,255,0);}.b,.c,.e{fill:none;stroke-width:5px;}.b,.c{stroke:#c9cedb;}.b,.e{stroke-miterlimit:10;}.d{stroke:rgba(0,0,0,0);fill:url(#a);}.e{stroke:#443b49;}</style><linearGradient id="a" x1="-0.115" y1="0.903" x2="0.975" y2="0.064" gradientUnits="objectBoundingBox"><stop offset="0" stop-color="#e1544f"/><stop offset="1" stop-color="#f08155"/></linearGradient></defs><g transform="translate(-346.153 -430.166)"><rect class="a" width="140" height="140" transform="translate(346.153 430.166)"/><path class="b" d="M451.313,474.291c-.123-.007-1.345-.007-1.468,0A14.052,14.052,0,0,0,437,487.52a13.41,13.41,0,0,0,3.192,8.985,15.1,15.1,0,0,1,3.631,9.759v3.851h13.5v-3.851a15.1,15.1,0,0,1,3.631-9.759,13.415,13.415,0,0,0,3.192-8.985A14.052,14.052,0,0,0,451.313,474.291Z" transform="matrix(0.891, 0.454, -0.454, 0.891, 276.288, -160.762)"/><path class="c" d="M0,0H15.828a0,0,0,0,1,0,0V9.028a5,5,0,0,1-5,5H5a5,5,0,0,1-5-5V0A0,0,0,0,1,0,0Z" transform="matrix(0.891, 0.454, -0.454, 0.891, 439.644, 494.426)"/><g transform="translate(-8 -6)"><path class="d" d="M46.856,12.213H0V0H13.244V4.214H35.65V0H46.856V12.212Z" transform="translate(393.152 475.755)"/><line class="e" x2="32.988" transform="translate(400.653 500.997)"/><line class="e" x2="23.55" transform="translate(400.654 515.583)"/><rect class="e" width="21.845" height="12.213" transform="translate(406.125 467.537)"/><path class="e" d="M100,338.385h15.133v58.694H63.938V338.385h14.33" transform="translate(327.065 135.728)"/></g></g></svg>