<svg xmlns="http://www.w3.org/2000/svg" xmlns:xlink="http://www.w3.org/1999/xlink" width="140" height="140" viewBox="0 0 140 140"><defs><style>.a{fill:rgba(255,255,255,0);}.b,.e,.g{fill:none;}.b,.c{stroke:#c9cedb;}.b,.c,.e{stroke-width:5px;}.c{fill:#fff;}.d{stroke:rgba(0,0,0,0);fill:url(#a);}.e{stroke:#443b49;stroke-miterlimit:10;}.f{stroke:none;}</style><linearGradient id="a" x1="-0.115" y1="0.903" x2="0.975" y2="0.064" gradientUnits="objectBoundingBox"><stop offset="0" stop-color="#e1544f"/><stop offset="1" stop-color="#f08155"/></linearGradient></defs><g transform="translate(-346.153 -430.166)"><rect class="a" width="140" height="140" transform="translate(346.153 430.166)"/><g transform="translate(-419.847 -156.834)"><g transform="translate(-50 -9)"><g transform="translate(844.943 605.891)"><path class="b" d="M3.735,34.732A26.148,26.148,0,0,1,0,21.2,25.864,25.864,0,0,1,10.854,0,25.867,25.867,0,0,1,21.708,21.2a26.152,26.152,0,0,1-3.734,13.532Z" transform="translate(6.313 0)"/><path class="b" d="M10384.344-5093.72h-19.4l9.975-14.9,1.113-1.667" transform="translate(-10369.297 5128.452)"/><path class="b" d="M10364.945-5093.72h19.4l-9.975-14.9-1.113-1.667" transform="translate(-10345.297 5128.452)"/><line class="b" y2="14" transform="translate(17.557 34.609)"/><line class="b" y2="35" transform="translate(7.557 60.609)"/><line class="b" y2="18" transform="translate(27.557 47.609)"/></g><g class="c" transform="translate(858 620)"><circle class="f" cx="4" cy="4" r="4"/><circle class="g" cx="4" cy="4" r="1.5"/></g></g></g><g transform="translate(19 -9)"><rect class="d" width="46.854" height="12.213" transform="translate(393.153 475.755)"/><line class="e" x2="32.988" transform="translate(400.653 503.706)"/><line class="e" x2="23.55" transform="translate(400.654 519.762)"/><path class="e" d="M100,338.385h15.133v64.608H63.938V338.385H100" transform="translate(327.065 135.728)"/></g></g></svg>